<svg width="21" height="21" viewBox="0 0 21 21" fill="none" xmlns="http://www.w3.org/2000/svg">
<path d="M10.5 0C9.12112 0 7.75574 0.271591 6.48182 0.799265C5.2079 1.32694 4.05039 2.10036 3.07538 3.07538C1.10625 5.04451 0 7.71523 0 10.5C0 15.141 3.0135 19.0785 7.182 20.475C7.707 20.559 7.875 20.2335 7.875 19.95C7.875 19.7085 7.875 19.047 7.875 18.1755C4.9665 18.8055 4.347 16.7685 4.347 16.7685C3.864 15.5505 3.1815 15.225 3.1815 15.225C2.226 14.574 3.255 14.595 3.255 14.595C4.305 14.6685 4.8615 15.6765 4.8615 15.6765C5.775 17.2725 7.3185 16.8 7.917 16.548C8.0115 15.8655 8.2845 15.4035 8.5785 15.141C6.2475 14.8785 3.801 13.9755 3.801 9.975C3.801 8.8095 4.2 7.875 4.8825 7.1295C4.7775 6.867 4.41 5.775 4.9875 4.3575C4.9875 4.3575 5.8695 4.074 7.875 5.4285C8.7045 5.1975 9.6075 5.082 10.5 5.082C11.3925 5.082 12.2955 5.1975 13.125 5.4285C15.1305 4.074 16.0125 4.3575 16.0125 4.3575C16.59 5.775 16.2225 6.867 16.1175 7.1295C16.8 7.875 17.199 8.8095 17.199 9.975C17.199 13.986 14.742 14.868 12.4005 15.1305C12.7785 15.456 13.125 16.0965 13.125 17.073V19.95C13.125 20.2335 13.293 20.5695 13.8285 20.475C17.997 19.068 21 15.141 21 10.5C21 9.12112 20.7284 7.75574 20.2007 6.48182C19.6731 5.20791 18.8996 4.05039 17.9246 3.07538C16.9496 2.10036 15.7921 1.32694 14.5182 0.799265C13.2443 0.271591 11.8789 0 10.5 0V0Z" fill="white"/>
</svg>
