<svg width="33" height="38" viewBox="0 0 33 38" fill="none" xmlns="http://www.w3.org/2000/svg">
<g filter="url(#filter0_d_14607_956)">
<path d="M13.717 24.7746C7.95601 26.7304 7.95601 21.5148 5.65161 20.8628M21.7824 28.6863V23.6402C21.8256 23.0184 21.7514 22.3934 21.5647 21.8066C21.3779 21.2198 21.083 20.6847 20.6993 20.2369C24.3173 19.7805 28.1195 18.2289 28.1195 11.1095C28.1192 9.28897 27.5004 7.53829 26.3912 6.21976C26.9165 4.62703 26.8793 2.86653 26.2875 1.30398C26.2875 1.30398 24.9279 0.847607 21.7824 3.23378C19.1416 2.42382 16.3578 2.42382 13.717 3.23378C10.5715 0.847607 9.21191 1.30398 9.21191 1.30398C8.62011 2.86653 8.58298 4.62703 9.10821 6.21976C7.99072 7.54807 7.3713 9.31457 7.37991 11.1486C7.37991 18.2158 11.1822 19.7675 14.8001 20.276C14.421 20.7193 14.1287 21.248 13.942 21.8276C13.7554 22.4072 13.6788 23.0248 13.717 23.6402V28.6863" stroke="#00F6FF" stroke-width="1.5" stroke-linecap="round" stroke-linejoin="round"/>
</g>
<defs>
<filter id="filter0_d_14607_956" x="-0.652802" y="0" width="35.6528" height="39.2941" filterUnits="userSpaceOnUse" color-interpolation-filters="sRGB">
<feFlood flood-opacity="0" result="BackgroundImageFix"/>
<feColorMatrix in="SourceAlpha" type="matrix" values="0 0 0 0 0 0 0 0 0 0 0 0 0 0 0 0 0 0 127 0" result="hardAlpha"/>
<feOffset dy="4"/>
<feGaussianBlur stdDeviation="2"/>
<feComposite in2="hardAlpha" operator="out"/>
<feColorMatrix type="matrix" values="0 0 0 0 0 0 0 0 0 0 0 0 0 0 0 0 0 0 0.25 0"/>
<feBlend mode="normal" in2="BackgroundImageFix" result="effect1_dropShadow_14607_956"/>
<feBlend mode="normal" in="SourceGraphic" in2="effect1_dropShadow_14607_956" result="shape"/>
</filter>
</defs>
</svg>
