<svg width="23" height="26" viewBox="0 0 23 26" fill="none" xmlns="http://www.w3.org/2000/svg">
<path d="M2.0932 23.4009L0 0H23L20.904 23.3972L11.486 26L2.0932 23.4009Z" fill="#E44F26"/>
<path d="M11.5 24.011L19.1108 21.9078L20.9012 1.91382H11.5V24.011Z" fill="#F1662A"/>
<path d="M11.5 10.5922H7.68993L7.42724 7.65329H11.5V4.78308H11.4897H4.28046L4.34939 5.5538L5.05644 13.4624H11.5V10.5922Z" fill="#EBEBEB"/>
<path d="M11.4999 18.0458L11.4869 18.0495L8.28048 17.1869L8.07554 14.8979H6.51706H5.18494L5.5883 19.4034L11.4869 21.0358L11.4999 21.0321V18.0458Z" fill="#EBEBEB"/>
<path d="M11.4897 10.5923V13.4625H15.0352L14.7017 17.1851L11.4897 18.0487V21.035L17.3929 19.4035L17.4358 18.9188L18.1121 11.363L18.1829 10.5923H17.4069H11.4897Z" fill="white"/>
<path d="M11.4897 4.78308V6.56594V7.6468V7.65329H18.4353H18.4446L18.5024 7.00887L18.6338 5.5538L18.7027 4.78308H11.4897Z" fill="white"/>
</svg>
