<svg width="24" height="24" viewBox="0 0 24 24" fill="none" xmlns="http://www.w3.org/2000/svg">
<path d="M23.993 0H0.00703125C0.003148 0 0 0.003148 0 0.00703125V23.993C0 23.9969 0.003148 24 0.00703125 24H23.993C23.9969 24 24 23.9969 24 23.993V0.00703125C24 0.003148 23.9969 0 23.993 0Z" fill="#F7DF1E"/>
<path d="M14.2273 17.8958C14.7591 17.59 15.4133 17.8057 15.8881 18.1941C16.2764 18.5117 16.7617 18.7031 17.3906 18.7031C18.3281 18.7031 18.9375 18.2344 18.9375 17.5781C18.9375 16.8281 18.3281 16.5469 17.2968 16.0781L16.7343 15.8438C15.0937 15.1406 14.0156 14.2969 14.0156 12.4688C14.0156 10.7812 15.2812 9.46875 17.2968 9.46875C18.4178 9.46875 19.2878 9.7756 19.9497 10.5184C20.3056 10.9178 20.1392 11.5207 19.6904 11.8119V11.8119C19.1845 12.14 18.5474 11.8806 18.015 11.5975C17.8078 11.4873 17.5731 11.4375 17.2968 11.4375C16.6406 11.4375 16.2187 11.8594 16.2187 12.4219C16.2187 13.0781 16.6406 13.3594 17.625 13.7812L18.1875 14.0156C20.1093 14.8594 21.1875 15.6562 21.1875 17.5781C21.1875 19.5938 19.5937 20.7188 17.4375 20.7188C15.83 20.7188 14.6581 20.1471 13.901 19.2942C13.5076 18.8511 13.7137 18.1912 14.2273 17.8958V17.8958ZM6.3017 18.025C6.81649 17.7478 7.39413 17.9772 7.82009 18.3777C8.03122 18.5762 8.29338 18.7031 8.67184 18.7031C9.42184 18.7031 9.89059 18.4219 9.89059 17.2969V10.6406C9.89059 10.0193 10.3943 9.51562 11.0156 9.51562V9.51562C11.6369 9.51562 12.1406 10.0193 12.1406 10.6406V17.2031C12.1406 19.5469 10.7812 20.5781 8.76559 20.5781C7.44176 20.5781 6.5358 20.0865 5.94091 19.3881C5.56358 18.9451 5.78932 18.3009 6.3017 18.025V18.025Z" fill="black"/>
</svg>
