<svg width="46" height="46" viewBox="0 0 46 46" fill="none" xmlns="http://www.w3.org/2000/svg">
<path d="M14.5679 36.0725C15.6749 35.5846 16.9133 35.4927 18.0728 35.8117C19.5176 36.2057 21.0093 36.4046 22.516 36.4008C31.119 36.4008 37.5266 30.2333 37.5266 21.9531C37.5266 13.6728 31.119 7.50535 22.516 7.50535C13.913 7.50535 7.50535 13.6728 7.50535 21.9531C7.50535 26.2124 9.18654 29.9688 12.1324 32.6032C12.6676 33.0772 13.1004 33.6556 13.4044 34.3028C13.7083 34.95 13.8769 35.6524 13.8999 36.3671L14.5679 36.0725ZM22.516 3.75269C33.0872 3.75269 41.2793 11.4963 41.2793 21.9531C41.2793 32.4099 33.0872 40.1535 22.516 40.1535C20.6812 40.1582 18.8541 39.9159 17.084 39.433C16.7515 39.3416 16.3977 39.3674 16.0821 39.5062L12.3594 41.1498C12.1345 41.2492 11.8886 41.2919 11.6434 41.274C11.3981 41.2561 11.161 41.1782 10.9529 41.0472C10.7448 40.9162 10.5721 40.736 10.4499 40.5226C10.3278 40.3092 10.2599 40.0691 10.2523 39.8233L10.1491 36.4834C10.1423 36.2803 10.0943 36.0808 10.0078 35.8969C9.92135 35.713 9.79832 35.5487 9.64624 35.4139C5.9949 32.151 3.75269 27.4264 3.75269 21.9531C3.75269 11.4963 11.9466 3.75269 22.516 3.75269ZM11.2486 27.2762L16.7594 18.5325C16.9668 18.2034 17.2401 17.9207 17.5622 17.7025C17.8843 17.4843 18.2481 17.3352 18.6307 17.2647C19.0133 17.1941 19.4064 17.2037 19.7851 17.2927C20.1638 17.3818 20.52 17.5484 20.8311 17.782L25.2142 21.0656C25.4095 21.2131 25.6477 21.2929 25.8925 21.2929C26.1372 21.2929 26.3754 21.2131 26.5707 21.0656L32.4906 16.5699C33.2805 15.9714 34.3125 16.917 33.7834 17.7576L28.2726 26.5013C28.0652 26.8305 27.7919 27.1132 27.4698 27.3314C27.1477 27.5496 26.7839 27.6987 26.4013 27.7692C26.0187 27.8397 25.6256 27.8302 25.2469 27.7411C24.8682 27.6521 24.512 27.4855 24.2009 27.2519L19.8178 23.9683C19.6225 23.8208 19.3843 23.741 19.1395 23.741C18.8947 23.741 18.6566 23.8208 18.4612 23.9683L12.5414 28.4621C11.7515 29.0606 10.7195 28.115 11.2486 27.2744V27.2762Z" fill="#00F6FF"/>
</svg>
