<svg width="30" height="35" viewBox="0 0 30 35" fill="none" xmlns="http://www.w3.org/2000/svg">
<path d="M27.1875 0H2.8125C2.06658 0 1.35121 0.338647 0.823762 0.941442C0.296316 1.54424 0 2.3618 0 3.21429L0 31.0714C0 31.9239 0.296316 32.7415 0.823762 33.3443C1.35121 33.9471 2.06658 34.2857 2.8125 34.2857H27.1875C27.9334 34.2857 28.6488 33.9471 29.1762 33.3443C29.7037 32.7415 30 31.9239 30 31.0714V3.21429C30 2.3618 29.7037 1.54424 29.1762 0.941442C28.6488 0.338647 27.9334 0 27.1875 0V0ZM28.125 31.0714C28.125 31.3556 28.0262 31.6281 27.8504 31.829C27.6746 32.03 27.4361 32.1429 27.1875 32.1429H2.8125C2.56386 32.1429 2.3254 32.03 2.14959 31.829C1.97377 31.6281 1.875 31.3556 1.875 31.0714V10.7143H28.125V31.0714ZM28.125 8.57143H1.875V3.21429C1.875 2.93012 1.97377 2.6576 2.14959 2.45667C2.3254 2.25574 2.56386 2.14286 2.8125 2.14286H27.1875C27.4361 2.14286 27.6746 2.25574 27.8504 2.45667C28.0262 2.6576 28.125 2.93012 28.125 3.21429V8.57143Z" fill="#5CE1E6"/>
<path d="M3.75 4.28571H5.625V6.42856H3.75V4.28571Z" fill="#5CE1E6"/>
<path d="M7.5 4.28571H9.375V6.42856H7.5V4.28571Z" fill="#5CE1E6"/>
<path d="M24.375 4.28571H26.25V6.42856H24.375V4.28571Z" fill="#5CE1E6"/>
<path d="M7.5 20.3572H22.5C22.7486 20.3572 22.9871 20.2443 23.1629 20.0433C23.3387 19.8424 23.4375 19.5699 23.4375 19.2857V15C23.4375 14.7159 23.3387 14.4433 23.1629 14.2424C22.9871 14.0415 22.7486 13.9286 22.5 13.9286H7.5C7.25136 13.9286 7.0129 14.0415 6.83709 14.2424C6.66127 14.4433 6.5625 14.7159 6.5625 15V19.2857C6.5625 19.5699 6.66127 19.8424 6.83709 20.0433C7.0129 20.2443 7.25136 20.3572 7.5 20.3572ZM14.0625 16.0714H21.5625V18.2143H14.0625V16.0714Z" fill="#5CE1E6"/>
<path d="M7.5 28.9286H22.5C22.7486 28.9286 22.9871 28.8157 23.1629 28.6148C23.3387 28.4138 23.4375 28.1413 23.4375 27.8571V23.5714C23.4375 23.2873 23.3387 23.0147 23.1629 22.8138C22.9871 22.6129 22.7486 22.5 22.5 22.5H7.5C7.25136 22.5 7.0129 22.6129 6.83709 22.8138C6.66127 23.0147 6.5625 23.2873 6.5625 23.5714V27.8571C6.5625 28.1413 6.66127 28.4138 6.83709 28.6148C7.0129 28.8157 7.25136 28.9286 7.5 28.9286ZM8.4375 24.6429H15.9375V26.7857H8.4375V24.6429Z" fill="#5CE1E6"/>
</svg>
