<svg width="30" height="30" viewBox="0 0 30 30" fill="none" xmlns="http://www.w3.org/2000/svg">
<path d="M9.43125 16.7625C9.71989 16.8327 10.0155 16.8705 10.3125 16.875C11.0572 16.8748 11.785 16.6529 12.4031 16.2375L15.4219 18.9281C15.1827 19.3822 15.0424 19.8818 15.0101 20.394C14.9778 20.9062 15.0542 21.4194 15.2344 21.9C15.4236 22.4445 15.7358 22.938 16.1468 23.3423C16.5577 23.7465 17.0564 24.0506 17.6039 24.2308C18.1514 24.4111 18.7331 24.4627 19.3039 24.3816C19.8746 24.3006 20.4189 24.089 20.8946 23.7634C21.3703 23.4378 21.7645 23.007 22.0467 22.5043C22.3288 22.0016 22.4913 21.4407 22.5214 20.865C22.5515 20.2893 22.4486 19.7145 22.2205 19.1851C21.9924 18.6557 21.6453 18.186 21.2063 17.8125L23.5875 13.0406C24.0523 13.1455 24.5334 13.1555 25.0022 13.0701C25.4709 12.9847 25.9176 12.8057 26.3156 12.5437C26.9915 12.1313 27.5194 11.5155 27.8239 10.7846C28.1283 10.0537 28.1935 9.24517 28.0103 8.47489C27.8271 7.70462 27.4047 7.01211 26.8038 6.49658C26.2028 5.98105 25.4541 5.66896 24.665 5.60502C23.8758 5.54108 23.0866 5.72856 22.4105 6.14062C21.7344 6.55268 21.2061 7.16817 20.9012 7.89889C20.5964 8.62962 20.5306 9.43809 20.7134 10.2085C20.8962 10.9789 21.3181 11.6716 21.9187 12.1875L19.5375 16.9594C19.2789 16.9025 19.0148 16.8742 18.75 16.875C18.0053 16.8752 17.2775 17.0971 16.6594 17.5125L13.6406 14.8219C13.8798 14.3678 14.0201 13.8682 14.0524 13.356C14.0847 12.8438 14.0083 12.3306 13.8281 11.85C13.6403 11.3095 13.3312 10.8191 12.9246 10.4164C12.518 10.0138 12.0246 9.70949 11.4823 9.52693C10.9399 9.34437 10.363 9.28835 9.79566 9.36316C9.22832 9.43798 8.68563 9.64164 8.20915 9.95856C7.73267 10.2755 7.33504 10.6972 7.04671 11.1915C6.75838 11.6858 6.587 12.2396 6.5457 12.8103C6.5044 13.3811 6.59427 13.9537 6.80843 14.4844C7.02259 15.015 7.35536 15.4897 7.78125 15.8719L3.75 23.4375V1.875H1.875V26.25C1.875 26.7473 2.07254 27.2242 2.42417 27.5758C2.77581 27.9275 3.25272 28.125 3.75 28.125H28.125V26.25H4.37813L9.43125 16.7625ZM24.375 7.5C24.7458 7.5 25.1084 7.60997 25.4167 7.81599C25.725 8.02202 25.9654 8.31486 26.1073 8.65747C26.2492 9.00008 26.2863 9.37708 26.214 9.74079C26.1416 10.1045 25.963 10.4386 25.7008 10.7008C25.4386 10.963 25.1045 11.1416 24.7408 11.214C24.3771 11.2863 24.0001 11.2492 23.6575 11.1073C23.3149 10.9654 23.022 10.725 22.816 10.4167C22.61 10.1084 22.5 9.74584 22.5 9.375C22.5 8.87772 22.6975 8.40081 23.0492 8.04918C23.4008 7.69754 23.8777 7.5 24.375 7.5ZM20.625 20.625C20.625 20.9958 20.515 21.3584 20.309 21.6667C20.103 21.975 19.8101 22.2154 19.4675 22.3573C19.1249 22.4992 18.7479 22.5363 18.3842 22.464C18.0205 22.3916 17.6864 22.213 17.4242 21.9508C17.162 21.6886 16.9834 21.3545 16.911 20.9908C16.8387 20.6271 16.8758 20.2501 17.0177 19.9075C17.1596 19.5649 17.4 19.272 17.7083 19.066C18.0166 18.86 18.3792 18.75 18.75 18.75C19.2473 18.75 19.7242 18.9475 20.0758 19.2992C20.4275 19.6508 20.625 20.1277 20.625 20.625ZM10.3125 11.25C10.6833 11.25 11.0459 11.36 11.3542 11.566C11.6625 11.772 11.9029 12.0649 12.0448 12.4075C12.1867 12.7501 12.2238 13.1271 12.1515 13.4908C12.0791 13.8545 11.9005 14.1886 11.6383 14.4508C11.3761 14.713 11.042 14.8916 10.6783 14.964C10.3146 15.0363 9.93758 14.9992 9.59497 14.8573C9.25236 14.7154 8.95952 14.475 8.75349 14.1667C8.54747 13.8584 8.4375 13.4958 8.4375 13.125C8.4375 12.6277 8.63504 12.1508 8.98668 11.7992C9.33831 11.4475 9.81522 11.25 10.3125 11.25Z" fill="#5CE1E6"/>
</svg>
