<svg width="25" height="20" viewBox="0 0 25 20" fill="none" xmlns="http://www.w3.org/2000/svg">
<path d="M6.8228 6.92162L3.09926 9.99966L6.8228 13.0777C7.06926 13.2814 7.22405 13.574 7.2531 13.8909C7.28215 14.2079 7.18308 14.5233 6.9777 14.7678C6.77231 15.0122 6.47743 15.1658 6.15792 15.1946C5.83841 15.2234 5.52045 15.1251 5.27398 14.9214L0.435269 10.9215C0.299035 10.8089 0.189427 10.6679 0.114209 10.5086C0.03899 10.3493 0 10.1756 0 9.99966C0 9.82375 0.03899 9.64999 0.114209 9.49068C0.189427 9.33138 0.299035 9.19043 0.435269 9.07781L5.27398 5.07791C5.39602 4.97703 5.53689 4.90099 5.68856 4.85411C5.84023 4.80724 5.99971 4.79046 6.15792 4.80472C6.31612 4.81899 6.46995 4.86403 6.6106 4.93727C6.75126 5.01051 6.876 5.11051 6.9777 5.23157C7.07939 5.35263 7.15606 5.49238 7.20331 5.64283C7.25056 5.79327 7.26748 5.95148 7.2531 6.10842C7.23871 6.26535 7.19331 6.41794 7.11948 6.55747C7.04565 6.697 6.94483 6.82074 6.8228 6.92162V6.92162ZM24.5647 9.07781L19.726 5.07791C19.604 4.97703 19.4631 4.90099 19.3114 4.85411C19.1598 4.80724 19.0003 4.79046 18.8421 4.80472C18.6839 4.81899 18.5301 4.86403 18.3894 4.93727C18.2487 5.01051 18.124 5.11051 18.0223 5.23157C17.9206 5.35263 17.8439 5.49238 17.7967 5.64283C17.7494 5.79327 17.7325 5.95148 17.7469 6.10842C17.7613 6.26535 17.8067 6.41794 17.8805 6.55747C17.9544 6.697 18.0552 6.82074 18.1772 6.92162L21.9007 9.99966L18.1772 13.0777C18.0552 13.1786 17.9544 13.3023 17.8805 13.4419C17.8067 13.5814 17.7613 13.734 17.7469 13.8909C17.7179 14.2079 17.8169 14.5233 18.0223 14.7678C18.2277 15.0122 18.5226 15.1658 18.8421 15.1946C19.0003 15.2089 19.1598 15.1921 19.3114 15.1452C19.4631 15.0983 19.604 15.0223 19.726 14.9214L24.5647 10.9215C24.701 10.8089 24.8106 10.6679 24.8858 10.5086C24.961 10.3493 25 10.1756 25 9.99966C25 9.82375 24.961 9.64999 24.8858 9.49068C24.8106 9.33138 24.701 9.19043 24.5647 9.07781V9.07781ZM16.1392 0.0721848C15.8377 -0.0365158 15.505 -0.0219778 15.2143 0.112602C14.9236 0.247181 14.6987 0.490784 14.589 0.789841L8.13736 18.3894C8.08298 18.5375 8.05855 18.6948 8.06546 18.8523C8.07238 19.0098 8.11051 19.1644 8.17767 19.3072C8.24483 19.4501 8.33972 19.5784 8.45689 19.6849C8.57407 19.7914 8.71125 19.8739 8.8606 19.9278C9.00994 19.9816 9.16852 20.0058 9.32728 19.9988C9.48603 19.9919 9.64185 19.954 9.78583 19.8873C9.92982 19.8206 10.0591 19.7264 10.1664 19.6101C10.2737 19.4938 10.3568 19.3577 10.411 19.2095L16.8626 1.60994C16.9169 1.46185 16.9413 1.3046 16.9343 1.14718C16.9273 0.98975 16.8892 0.835229 16.822 0.692434C16.7548 0.549639 16.6599 0.421368 16.5428 0.314945C16.4256 0.208523 16.2885 0.126032 16.1392 0.0721848V0.0721848Z" fill="white"/>
</svg>
