<svg width="25" height="33" viewBox="0 0 25 33" fill="none" xmlns="http://www.w3.org/2000/svg">
<path d="M24.9987 9.70201C24.9985 9.14713 24.8975 8.65682 24.6932 8.23601C24.4924 7.82221 24.1918 7.47538 23.7886 7.20116C20.4605 4.9473 17.129 2.70033 13.8019 0.444175C12.905 -0.164008 12.0353 -0.141835 11.145 0.475078C9.82023 1.39264 3.18782 5.85544 1.21145 7.19989C0.397524 7.75328 0.00146724 8.60018 0.00127161 9.70098C0 14.2336 0.00127161 18.7662 0 23.2989C0 23.8416 0.0969356 24.3224 0.292274 24.7369C0.49309 25.1632 0.797885 25.5196 1.21037 25.8C3.18684 27.1445 9.82014 31.6069 11.1446 32.5247C12.0353 33.142 12.905 33.164 13.8022 32.5556C17.1294 30.2993 20.461 28.0525 23.7897 25.7986C24.2022 25.5183 24.507 25.1617 24.7078 24.7357C24.9029 24.3213 25 23.8405 25 23.2977C25 23.2977 25 14.2348 24.9987 9.70201Z" fill="#A179DC"/>
<path d="M12.5382 16.4557L0.292236 24.7368C0.493053 25.1631 0.797847 25.5195 1.21034 25.7999C3.18681 27.1444 9.8201 31.6068 11.1445 32.5246C12.0352 33.1419 12.9049 33.1639 13.8022 32.5555C17.1294 30.2992 20.461 28.0524 23.7897 25.7985C24.2022 25.5182 24.507 25.1616 24.7078 24.7357L12.5382 16.4557Z" fill="#280068"/>
<path d="M24.9987 9.70209C24.9986 9.14721 24.8975 8.65689 24.6932 8.23608L12.5383 16.4559L24.7078 24.7358C24.9029 24.3213 24.9998 23.8405 25 23.2977C25 23.2977 25 14.2348 24.9987 9.70209Z" fill="#390091"/>
<path d="M19.7483 13.3601V14.908H21.0662V13.3601H21.7252V14.908H23.0431V15.6819H21.7252V17.2298H23.0431V18.0037H21.7252V19.5516H21.0662V18.0037H19.7483V19.5516H19.0893V18.0037H17.7714V17.2298H19.0893V15.6819H17.7714V14.908H19.0893V13.3601H19.7483ZM21.0662 15.6819H19.7483V17.2298H21.0662V15.6819Z" fill="white"/>
<path d="M12.5651 5.58618C16.0027 5.58618 19.004 7.77884 20.6116 11.038L20.5959 11.0066L16.5514 13.7418C15.7545 12.1571 14.2936 11.0878 12.6179 11.0657L12.5651 11.0654C10.0096 11.0654 7.9378 13.4985 7.9378 16.4999C7.9378 17.4814 8.16061 18.4014 8.54808 19.1961C9.34568 20.8314 10.8451 21.9344 12.5651 21.9344C14.2957 21.9344 15.8037 20.8174 16.5972 19.1646L16.5779 19.2042L20.6164 21.952C19.0265 25.1835 16.0663 27.3694 12.6686 27.413L12.5651 27.4137C9.11663 27.4137 6.10677 25.2075 4.50325 21.9311C3.72043 20.3316 3.27252 18.4773 3.27252 16.4999C3.27252 10.4725 7.43286 5.58618 12.5651 5.58618Z" fill="white"/>
</svg>
