<svg width="23" height="26" viewBox="0 0 23 26" fill="none" xmlns="http://www.w3.org/2000/svg">
<path d="M2.09243 23.4009L0 0H23L20.9048 23.3972L11.486 26L2.09243 23.4009Z" fill="#1572B6"/>
<path d="M11.5 24.011L19.1114 21.9078L20.902 1.91382H11.5V24.011Z" fill="#33A9DC"/>
<path d="M11.5 10.3917H15.3104L15.5731 7.45273H11.5V4.58252H11.5102H18.7201L18.6512 5.35231L17.9441 13.2619H11.5V10.3917Z" fill="white"/>
<path d="M11.5176 17.8453L11.5046 17.849L8.29794 16.9855L8.09299 14.6965H6.53437H5.20215L5.60554 19.2029L11.5037 20.8353L11.5176 20.8316V17.8453Z" fill="#EBEBEB"/>
<path d="M15.0653 13.1403L14.7188 16.9836L11.5074 17.8472V20.8335L17.4102 19.2029L17.454 18.7182L17.9543 13.1403H15.0653Z" fill="white"/>
<path d="M11.5102 4.58252V6.36538V7.44531V7.45273H4.56401H4.55469L4.49693 6.80738L4.36557 5.35231L4.29663 4.58252H11.5102Z" fill="#EBEBEB"/>
<path d="M11.5 10.3917V12.1746V13.2545V13.2619H8.34268H8.33336L8.2756 12.6166L8.14517 11.1615L8.07623 10.3917H11.5Z" fill="#EBEBEB"/>
</svg>
