<svg width="38" height="30" viewBox="0 0 38 30" fill="none" xmlns="http://www.w3.org/2000/svg">
<path d="M3.45455 0C2.53834 0 1.65967 0.31607 1.01181 0.87868C0.36396 1.44129 0 2.20435 0 3V21C0 22.665 1.55455 24 3.45455 24H15.5455V27H12.0909V30H25.9091V27H22.4545V24H34.5455C35.4617 24 36.3403 23.6839 36.9882 23.1213C37.636 22.5587 38 21.7956 38 21V3C38 2.20435 37.636 1.44129 36.9882 0.87868C36.3403 0.31607 35.4617 0 34.5455 0M3.45455 3H34.5455V21H3.45455M24.1818 4.5L18.1364 9.75L24.1818 15L26.6 12.9L22.9727 9.75L26.6 6.6M13.8182 9L11.4 11.1L15.0273 14.25L11.4 17.4L13.8182 19.5L19.8636 14.25" fill="#5CE1E6"/>
</svg>
