<svg width="36" height="34" viewBox="0 0 36 34" fill="none" xmlns="http://www.w3.org/2000/svg">
<path d="M30.6 0.831909C33.5823 0.831909 36 3.55618 36 6.91673V27.1995C36 30.56 33.5823 33.2843 30.6 33.2843H5.4C2.41766 33.2843 0 30.56 0 27.1995V6.91673C0 3.55618 2.41766 0.831909 5.4 0.831909H30.6ZM32.4 7.58201L19.1853 20.6128C18.5632 21.2262 17.6599 21.2773 16.9909 20.7662L16.8147 20.6128L3.6 7.58404V27.1995C3.6 28.3197 4.40589 29.2278 5.4 29.2278H30.6C31.5941 29.2278 32.4 28.3197 32.4 27.1995V7.58201ZM29.664 4.88846H6.3324L18 16.3913L29.664 4.88846Z" fill="#00F6FF"/>
<path d="M30.6 0.831909C33.5823 0.831909 36 3.55618 36 6.91673V27.1995C36 30.56 33.5823 33.2843 30.6 33.2843H5.4C2.41766 33.2843 0 30.56 0 27.1995V6.91673C0 3.55618 2.41766 0.831909 5.4 0.831909H30.6ZM32.4 7.58201L19.1853 20.6128C18.5632 21.2262 17.6599 21.2773 16.9909 20.7662L16.8147 20.6128L3.6 7.58404V27.1995C3.6 28.3197 4.40589 29.2278 5.4 29.2278H30.6C31.5941 29.2278 32.4 28.3197 32.4 27.1995V7.58201ZM29.664 4.88846H6.3324L18 16.3913L29.664 4.88846Z" stroke="#00F6FF"/>
</svg>
