<svg width="26" height="29" viewBox="0 0 26 29" fill="none" xmlns="http://www.w3.org/2000/svg">
<path d="M25.5096 13.2081L14.1576 0.546984C13.5043 -0.182328 12.444 -0.182328 11.7898 0.546984L9.43259 3.17626L12.4229 6.51162C13.1178 6.24974 13.9146 6.42539 14.4686 7.04333C15.0251 7.66509 15.1815 8.56146 14.941 9.33913L17.8228 12.5536C18.5201 12.2857 19.3245 12.4591 19.8814 13.0812C20.6596 13.9489 20.6596 15.3553 19.8814 16.2237C19.1029 17.092 17.842 17.092 17.0632 16.2237C16.4778 15.5701 16.3331 14.6111 16.6295 13.8066L13.9419 10.8089L13.9417 18.6977C14.1314 18.8027 14.3105 18.9424 14.4686 19.118C15.2468 19.9857 15.2468 21.3922 14.4686 22.2612C13.69 23.1292 12.4286 23.1292 11.6512 22.2612C10.8729 21.3922 10.8729 19.9857 11.6512 19.118C11.8435 18.9039 12.066 18.7419 12.3033 18.6331V10.6708C12.066 10.5626 11.8437 10.4016 11.6512 10.1859C11.0615 9.5291 10.9197 8.564 11.2218 7.75641L8.27436 4.46815L0.490604 13.1496C-0.163535 13.8795 -0.163535 15.0623 0.490604 15.7916L11.8426 28.453C12.4962 29.1823 13.5563 29.1823 14.2107 28.453L25.5096 15.8504C26.1635 15.1208 26.1635 13.9374 25.5096 13.2081Z" fill="#DE4C36"/>
</svg>
