<svg width="29" height="26" viewBox="0 0 29 26" fill="none" xmlns="http://www.w3.org/2000/svg">
<path fill-rule="evenodd" clip-rule="evenodd" d="M11.6319 1.68221C11.5245 1.7098 11.2492 2.01301 11.2492 2.10356C11.2492 2.23414 11.2039 2.34155 11.1097 2.43482C10.9668 2.5762 10.9708 2.73787 11.1213 2.91034C11.2116 3.0138 11.2296 3.05196 11.2421 3.16629C11.2558 3.29026 11.2692 3.3142 11.4165 3.47618L11.5761 3.65169L12.289 3.6642C12.9924 3.67656 13.0027 3.67757 13.0552 3.73384L13.1084 3.79097L13.1152 13.2239C13.1223 22.966 13.1231 22.8416 13.0483 22.9218C12.9778 22.9975 3.89592 22.9979 3.80885 22.9222L3.7536 22.8743L3.74744 19.13C3.74113 15.2778 3.74106 15.279 3.83176 15.2308C3.85307 15.2194 5.13531 15.2045 6.68115 15.1976L9.49169 15.1851L9.65713 15.0041L9.82258 14.8233V14.3444C9.82258 13.8023 9.8278 13.8219 9.63089 13.6192C9.47704 13.4608 9.42629 13.4426 9.13948 13.4426C9.00739 13.4426 8.99586 13.4374 8.89559 13.3329C8.75212 13.1834 8.92691 13.1918 5.94289 13.1925C3.08465 13.1931 3.16853 13.1888 3.03912 13.3406C2.95262 13.442 2.95125 13.4426 2.77993 13.4431C2.40126 13.4444 2.10481 13.7005 2.10481 14.0263C2.10481 14.0761 2.07508 14.1273 2.00179 14.2037C1.85947 14.352 1.86788 14.0191 1.87571 19.2125L1.88267 23.8417L1.99048 23.9652C2.08291 24.0712 2.1006 24.1086 2.11445 24.2272C2.12953 24.3567 2.14106 24.3767 2.29367 24.5391L2.4568 24.7127L2.69924 24.7255L2.9416 24.7383L3.06029 24.8573L3.1789 24.9762L9.72811 24.9698L16.2774 24.9635L16.3669 24.8585C16.4689 24.7388 16.4951 24.7297 16.7691 24.7199L16.9684 24.7127L17.3634 24.2893C17.9126 23.7003 17.9129 23.7278 17.3519 23.1547C17.2169 23.0168 17.1881 22.999 17.0745 22.9826C16.9674 22.9671 16.9299 22.9463 16.832 22.8481L16.7162 22.732L15.8895 22.7195C15.1364 22.708 15.0591 22.7029 15.0211 22.6621C14.9702 22.6075 14.9422 3.91735 14.9929 3.78545C15.0416 3.65868 14.8422 3.66319 20.0389 3.67019L24.9348 3.67679L24.9795 3.73594C25.0231 3.79377 25.0242 3.90406 25.0242 8.43894V13.0828L24.9701 13.1373L24.9159 13.1918L21.9473 13.1925C18.7417 13.1931 18.8379 13.1888 18.7116 13.3369C18.6387 13.4224 18.6101 13.4376 18.4916 13.4535C18.2632 13.4841 18.008 13.7863 18.008 14.0263C18.008 14.075 17.9795 14.1265 17.9145 14.1947C17.7998 14.3152 17.7998 14.316 17.9116 14.4543C17.9841 14.5442 18.0054 14.594 18.0181 14.7037C18.0333 14.8333 18.0437 14.851 18.2059 15.0195L18.3777 15.1981L22.3512 15.1916L26.3247 15.1851L26.4872 15.011L26.6496 14.8369L26.6563 14.6224C26.6654 14.3291 26.6706 14.3122 26.7901 14.1859L26.8952 14.0749V8.57954C26.8952 4.58509 26.888 3.06999 26.8691 3.03198C26.8547 3.0033 26.8021 2.93809 26.7521 2.8871C26.6719 2.80518 26.6613 2.78078 26.6613 2.67709C26.6613 2.47811 26.1743 1.95223 25.9616 1.92152C25.8545 1.90613 25.817 1.8853 25.7191 1.78714L25.6032 1.67094L18.6542 1.66713C14.8323 1.66503 11.6722 1.67179 11.6319 1.68221ZM15.5056 4.74233C15.4405 4.8122 15.4305 22.0586 15.4956 22.1284C15.5465 22.1829 15.5901 22.1777 15.6329 22.1121C15.6657 22.0619 15.6693 21.2108 15.6693 13.576C15.6693 7.41436 15.6764 5.07903 15.6953 5.03465C15.7466 4.91402 15.6087 4.91783 19.9046 4.91783H23.9739L24.0292 4.97713C24.1148 5.06893 24.1149 5.07655 24.1074 8.68447L24.1004 12.0624L24.0356 12.132L23.9707 12.2015L21.1725 12.2082C19.1763 12.213 18.3653 12.2229 18.3431 12.2427C18.2892 12.2907 18.3055 12.3881 18.3721 12.4152C18.4613 12.4516 24.139 12.4482 24.2137 12.4118C24.3257 12.3571 24.3226 12.4686 24.3226 8.54309V4.82433L24.2741 4.75826L24.2256 4.69219H19.889C15.5836 4.69219 15.552 4.69258 15.5056 4.74233ZM11.975 5.04157C11.9584 5.07476 11.9508 7.72736 11.9508 13.4246C11.9508 22.1494 11.9539 21.8845 11.849 21.949C11.7951 21.9821 5.0992 22.0109 4.89077 21.9789C4.82907 21.9695 4.76643 21.9396 4.73293 21.9037L4.6774 21.8442V19.1113C4.6774 17.1618 4.68487 16.3609 4.70335 16.3173C4.75396 16.1983 4.70277 16.2006 7.37454 16.2006C10.1074 16.2006 10.0097 16.2052 10.0097 16.0747C10.0097 15.9754 9.99549 15.9749 7.23984 15.9749C4.59163 15.9749 4.55995 15.9755 4.51369 16.0251C4.46744 16.0747 4.46693 16.1086 4.46693 19.0926V22.1099L4.51616 22.1577C4.59076 22.23 12.0404 22.233 12.1079 22.1607C12.1575 22.1074 12.1867 5.14082 12.1371 5.0418C12.1056 4.97846 12.0066 4.97838 11.975 5.04157Z" fill="#5CE1E6"/>
</svg>
