<svg width="28" height="32" viewBox="0 0 28 32" fill="none" xmlns="http://www.w3.org/2000/svg">
<path d="M18.4352 10.4314C20.2687 10.4314 22.0271 11.2557 23.3236 12.7229C24.6201 14.1901 25.3484 16.18 25.3484 18.2549V27.3824H20.7396V18.2549C20.7396 17.5633 20.4968 16.9 20.0647 16.4109C19.6325 15.9218 19.0464 15.6471 18.4352 15.6471C17.824 15.6471 17.2379 15.9218 16.8057 16.4109C16.3736 16.9 16.1308 17.5633 16.1308 18.2549V27.3824H11.522V18.2549C11.522 16.18 12.2504 14.1901 13.5468 12.7229C14.8433 11.2557 16.6017 10.4314 18.4352 10.4314V10.4314Z" stroke="#00F6FF" stroke-width="1.5" stroke-linecap="round" stroke-linejoin="round"/>
<path d="M6.91321 11.7354H2.30441V27.3824H6.91321V11.7354Z" stroke="#00F6FF" stroke-width="1.5" stroke-linecap="round" stroke-linejoin="round"/>
<path d="M4.60881 7.82347C5.8815 7.82347 6.91321 6.6559 6.91321 5.21563C6.91321 3.77536 5.8815 2.60779 4.60881 2.60779C3.33613 2.60779 2.30441 3.77536 2.30441 5.21563C2.30441 6.6559 3.33613 7.82347 4.60881 7.82347Z" stroke="#00F6FF" stroke-width="1.5" stroke-linecap="round" stroke-linejoin="round"/>
</svg>
