<svg width="20" height="38" viewBox="0 0 20 38" fill="none" xmlns="http://www.w3.org/2000/svg">
<path d="M10.9835 38.0001L9.79063 37.6621C9.79063 37.6621 9.94947 32.505 7.76541 32.1426C6.33585 30.7204 7.97667 -28.5773 13.2025 31.9404C12.211 32.3701 11.4523 33.1107 11.0852 34.0074C10.8884 35.3316 10.8543 36.6698 10.9835 38.0001Z" fill="url(#paint0_linear_14614_281)"/>
<path d="M11.6284 33.018C14.8046 30.9752 17.2369 28.2041 18.6428 25.027C20.0487 21.8498 20.3704 18.397 19.5705 15.0698C17.2355 6.26869 11.7063 3.37526 11.1106 2.27055C10.5967 1.58265 10.158 0.855774 9.80017 0.0991211L10.2402 24.6213C10.2402 24.6213 9.32841 32.1155 11.6284 33.018Z" fill="url(#paint1_linear_14614_281)"/>
<path d="M9.18382 33.3436C9.18382 33.3436 -0.538814 27.6857 0.0234822 17.6768C0.0759355 14.6594 0.885676 11.6867 2.39801 8.95961C3.91034 6.2325 6.09005 3.81445 8.7899 1.86879C9.1054 1.63976 9.35607 1.35263 9.52306 1.02896C9.69005 0.705288 9.76903 0.353492 9.75406 0C10.3592 1.11286 10.2608 16.6155 10.3243 18.4286C10.5705 25.4817 9.86525 32.0123 9.18382 33.3436Z" fill="url(#paint2_linear_14614_281)"/>
<defs>
<linearGradient id="paint0_linear_14614_281" x1="2.96468" y1="19.3425" x2="16.1709" y2="24.5876" gradientUnits="userSpaceOnUse">
<stop offset="0.231" stop-color="#999875"/>
<stop offset="0.563" stop-color="#9B9977"/>
<stop offset="0.683" stop-color="#A09F7E"/>
<stop offset="0.768" stop-color="#A9A889"/>
<stop offset="0.837" stop-color="#B7B69A"/>
<stop offset="0.896" stop-color="#C9C7B0"/>
<stop offset="0.948" stop-color="#DEDDCB"/>
<stop offset="0.994" stop-color="#F8F6EB"/>
<stop offset="1" stop-color="#FBF9EF"/>
</linearGradient>
<linearGradient id="paint1_linear_14614_281" x1="7.99248" y1="-0.0761051" x2="12.4474" y2="32.483" gradientUnits="userSpaceOnUse">
<stop stop-color="#48A547"/>
<stop offset="1" stop-color="#3F9143"/>
</linearGradient>
<linearGradient id="paint2_linear_14614_281" x1="-0.812857" y1="18.6675" x2="14.8685" y2="12.5209" gradientUnits="userSpaceOnUse">
<stop stop-color="#41A247"/>
<stop offset="0.352" stop-color="#4BA74B"/>
<stop offset="0.956" stop-color="#67B554"/>
<stop offset="1" stop-color="#69B655"/>
</linearGradient>
</defs>
</svg>
