<svg width="35" height="14" viewBox="0 0 35 14" fill="none" xmlns="http://www.w3.org/2000/svg">
<path d="M1.45746 14C1.04124 14 0.69428 13.847 0.416568 13.541C0.138855 13.2349 0 12.859 0 12.4133C0 11.9532 0.142748 11.5768 0.428155 11.2841C0.713651 10.9914 1.07052 10.8451 1.49876 10.8451C1.93037 10.8451 2.28379 10.9935 2.55893 11.2903C2.83408 11.5871 2.9717 11.9614 2.9717 12.4133C2.9717 12.8775 2.83152 13.258 2.55124 13.5548C2.27087 13.8516 1.90631 14 1.45746 14Z" fill="#5CE1E6"/>
<path d="M15.3538 13.8028H12.7071L7.97352 5.12987C7.6966 4.62251 7.50406 4.24044 7.39572 3.98375H7.36476C7.40774 4.47051 7.42924 5.21511 7.42924 6.21747V13.8028H4.95282V0H7.77487L12.3331 8.40186C12.5411 8.78182 12.7337 9.15767 12.9109 9.5295H12.9418C12.8988 9.20901 12.8774 8.57742 12.8774 7.63465V0H15.3538V13.8028Z" fill="#5CE1E6"/>
<path d="M24.9292 13.8028H17.9952V0H24.599V2.5634H20.6368V5.52114H24.4339V8.08454H20.6368V11.2394H24.9292V13.8028Z" fill="#5CE1E6"/>
<path d="M35 2.5634H31.6982V13.8028H29.0566V2.5634H25.7548V0H35V2.5634Z" fill="#5CE1E6"/>
</svg>
