<svg width="26" height="26" viewBox="0 0 26 26" fill="none" xmlns="http://www.w3.org/2000/svg">
<path d="M21.3772 8.42709C21.1075 8.32274 20.828 8.22402 20.5403 8.13065C20.5875 7.91369 20.631 7.69954 20.6696 7.48903C21.3031 4.03239 20.8889 1.24771 19.4743 0.330868C18.118 -0.548258 15.8997 0.368371 13.6594 2.55971C13.444 2.77043 13.228 2.99353 13.012 3.22734C12.8681 3.07264 12.7245 2.92315 12.5812 2.78015C10.2333 0.437033 7.8799 -0.550391 6.46675 0.369099C5.11168 1.25077 4.71039 3.86865 5.28069 7.14452C5.33577 7.46094 5.40014 7.78406 5.47294 8.1126C5.13986 8.21887 4.81831 8.33216 4.51065 8.45268C1.75798 9.53134 0 11.2219 0 12.9754C0 14.7864 1.88719 16.6029 4.75431 17.7044C4.98057 17.7913 5.21535 17.8735 5.4573 17.9515C5.37876 18.3068 5.31045 18.655 5.25311 18.9946C4.70932 22.2137 5.13399 24.7697 6.48545 25.6458C7.88138 26.5506 10.2241 25.6206 12.5054 23.3793C12.6857 23.2021 12.8667 23.0143 13.0479 22.8173C13.2829 23.0716 13.5175 23.3123 13.7508 23.5381C15.9605 25.6752 18.1429 26.5382 19.4931 25.6597C20.8877 24.7523 21.3409 22.0065 20.7525 18.6659C20.7076 18.4107 20.6553 18.1501 20.5965 17.8848C20.7611 17.8301 20.9226 17.7737 21.0801 17.715C24.0607 16.605 26 14.8106 26 12.9754C26 11.2155 24.1853 9.5136 21.3772 8.42709ZM20.7307 16.53C20.5886 16.5829 20.4427 16.634 20.294 16.6836C19.965 15.5128 19.5209 14.2678 18.9774 12.9815C19.496 11.7258 19.923 10.4967 20.2428 9.33347C20.5088 9.41997 20.7669 9.51121 21.0157 9.60749C23.4217 10.5384 24.8893 11.9148 24.8893 12.9754C24.8893 14.1051 23.3043 15.5716 20.7307 16.53ZM19.6629 18.9083C19.9231 20.3855 19.9602 21.7211 19.7879 22.7651C19.633 23.7033 19.3216 24.3288 18.9366 24.5793C18.1172 25.1124 16.3649 24.4195 14.4752 22.5917C14.2586 22.3822 14.0404 22.1585 13.8215 21.9217C14.5541 21.0211 15.2863 19.9742 16.0009 18.8115C17.2578 18.6861 18.4453 18.4812 19.5221 18.2014C19.5752 18.4419 19.6223 18.6777 19.6629 18.9083ZM8.86399 24.4872C8.06344 24.805 7.42585 24.8141 7.04043 24.5643C6.22031 24.0326 5.87937 21.9804 6.34443 19.2275C6.3977 18.9122 6.4611 18.5883 6.53418 18.2573C7.59926 18.522 8.77805 18.7125 10.038 18.8273C10.7574 19.9651 11.5107 21.0108 12.2699 21.9265C12.104 22.1065 11.9388 22.2779 11.7745 22.4393C10.7658 23.4304 9.75487 24.1335 8.86399 24.4872ZM5.11353 16.5231C3.84575 16.0361 2.79876 15.4031 2.0811 14.7124C1.43624 14.0917 1.11067 13.4754 1.11067 12.9754C1.11067 11.9113 2.52215 10.554 4.87626 9.63152C5.16189 9.51958 5.46091 9.41409 5.77121 9.315C6.09656 10.5045 6.52335 11.7482 7.03839 13.0058C6.51668 14.282 6.08383 15.5455 5.75529 16.749C5.53407 16.6775 5.31975 16.6023 5.11353 16.5231ZM6.37072 6.90478C5.8821 4.09809 6.20661 1.98082 7.02321 1.44953C7.89304 0.88354 9.81647 1.69052 11.8437 3.71369C11.9733 3.843 12.1034 3.97835 12.2338 4.11838C11.4784 5.03006 10.732 6.068 10.0189 7.19904C8.79614 7.32642 7.62564 7.53105 6.54945 7.80508C6.48179 7.49917 6.42186 7.19862 6.37072 6.90478ZM17.5859 10.0174C17.3287 9.51792 17.0646 9.03027 16.7953 8.55593C17.6249 8.6738 18.4197 8.83026 19.1661 9.02174C18.942 9.82892 18.6627 10.6729 18.3339 11.5381C18.0981 11.0348 17.8486 10.5274 17.5859 10.0174ZM13.0124 5.01056C13.5247 5.63439 14.0378 6.33089 14.5424 7.08658C14.0339 7.05958 13.5191 7.04554 13 7.04554C12.4858 7.04554 11.9748 7.05927 11.4694 7.0858C11.9746 6.33713 12.4921 5.64157 13.0124 5.01056ZM8.40957 10.026C8.15258 10.5269 7.90776 11.0315 7.67562 11.5371C7.35217 10.675 7.07546 9.82715 6.84943 9.00852C7.59125 8.82194 8.38231 8.66938 9.2066 8.55375C8.93355 9.03245 8.66725 9.52369 8.40957 10.0259V10.026ZM9.23034 17.4861C8.3787 17.3793 7.57575 17.2346 6.83412 17.0531C7.06376 16.2199 7.34657 15.354 7.67687 14.4732C7.90961 14.9785 8.1554 15.4833 8.41396 15.9853H8.41401C8.67739 16.4967 8.95025 16.9976 9.23034 17.4861ZM13.0431 21.0282C12.5167 20.3898 11.9916 19.6837 11.4788 18.9241C11.9766 18.946 12.4842 18.9572 13 18.9572C13.5299 18.9572 14.0538 18.9438 14.5695 18.918C14.0632 19.6913 13.552 20.3986 13.0431 21.0282ZM18.3445 14.4284C18.692 15.3186 18.985 16.18 19.2176 16.999C18.4637 17.1923 17.6498 17.348 16.7922 17.4637C17.0622 16.983 17.3286 16.4869 17.5904 15.9767C17.8552 15.4605 18.1067 14.9435 18.3445 14.4284ZM16.6283 15.353C16.2218 16.1451 15.8046 16.9012 15.381 17.6149C14.6095 17.6769 13.8124 17.7089 13 17.7089C12.1909 17.7089 11.4039 17.6806 10.646 17.6253C10.2053 16.9022 9.77898 16.1439 9.37515 15.3599H9.37524C8.97247 14.578 8.60177 13.7894 8.26587 13.0053C8.60168 12.2194 8.9714 11.43 9.37186 10.6495L9.37177 10.6497C9.77329 9.8671 10.1959 9.11245 10.6325 8.3939C11.4057 8.3282 12.1986 8.29392 13 8.29392H13C13.8049 8.29392 14.5989 8.32846 15.3719 8.39473C15.8018 9.10803 16.2215 9.86024 16.6246 10.6429C17.0323 11.4344 17.4068 12.2185 17.7455 12.9876C17.4078 13.7699 17.0342 14.5619 16.6283 15.353ZM18.9195 1.41239C19.7902 1.97671 20.1288 4.25263 19.5818 7.23706C19.5469 7.42749 19.5076 7.62146 19.4649 7.81803C18.3862 7.53829 17.2149 7.33012 15.9885 7.2008C15.2741 6.05733 14.5338 5.01779 13.7906 4.1178C13.9904 3.90178 14.1899 3.6958 14.3886 3.50141C16.3081 1.62389 18.1021 0.882604 18.9195 1.41239ZM13 10.3659C14.2822 10.3659 15.3217 11.5342 15.3217 12.9754C15.3217 14.4165 14.2822 15.5849 13 15.5849C11.7178 15.5849 10.6783 14.4165 10.6783 12.9754C10.6783 11.5342 11.7178 10.3659 13 10.3659Z" fill="#00D8FF"/>
</svg>
