<svg width="21" height="29" viewBox="0 0 21 29" fill="none" xmlns="http://www.w3.org/2000/svg">
<path d="M8.83437 28.9812C6.21089 28.7855 3.61793 28.1022 2.02769 27.1875C1.12189 26.6665 0.431792 26.0262 0.160995 25.4555L-0.00012207 25.1159V14.4655V3.81508L0.127369 3.54722C0.697106 2.35036 2.5154 1.27138 5.05363 0.623976C5.91524 0.404198 7.15909 0.185334 8.17384 0.0749692C9.21003 -0.0377573 11.9565 -0.0206068 12.9902 0.105211C15.7373 0.439165 18.0749 1.18681 19.5155 2.19223C20.0711 2.57996 20.6412 3.20036 20.8343 3.6274L20.9999 3.99354L20.9857 14.6118L20.9715 25.23L20.8386 25.5094C20.7655 25.6631 20.5447 25.9654 20.3479 26.1812C19.1501 27.4951 16.5806 28.4671 13.2104 28.8812C12.5234 28.9656 9.53918 29.0339 8.83442 28.9813L8.83437 28.9812ZM13.669 19.8552C13.6589 19.8279 13.2668 19.4664 12.7975 19.0518C12.3283 18.6371 11.9241 18.2784 11.8994 18.2545C11.8747 18.2307 11.9614 18.1464 12.0921 18.0671C12.2227 17.9879 12.4731 17.7674 12.6484 17.5772C13.1611 17.0209 13.403 16.3338 13.403 15.4337C13.403 14.5477 13.1421 13.8327 12.6196 13.287C12.0929 12.7369 11.4882 12.5006 10.6077 12.5006C9.25032 12.5006 8.20789 13.3201 7.87517 14.6487C7.76071 15.1057 7.76133 16.0291 7.87637 16.4343C8.17642 17.4913 8.99362 18.259 10.0107 18.4392C10.3548 18.5002 10.4015 18.5265 10.6361 18.792C10.7756 18.9497 11.0617 19.2646 11.272 19.4917L11.6544 19.9046H12.6709C13.23 19.9046 13.6791 19.8824 13.669 19.8552ZM10.1831 16.9102C9.93834 16.7782 9.84583 16.6758 9.70628 16.3822C9.5985 16.1555 9.58007 16.0266 9.57886 15.4907C9.57766 14.9462 9.5944 14.8285 9.70694 14.5921C9.89106 14.2052 10.1448 14.0221 10.5373 13.9927C11.0836 13.9517 11.399 14.2291 11.5643 14.8959C11.7669 15.7133 11.5441 16.5824 11.0579 16.8709C10.8028 17.0222 10.4223 17.0393 10.1831 16.9102ZM5.67747 18.4276C6.74321 18.2185 7.3482 17.5772 7.3482 16.6566C7.3482 15.8399 6.95761 15.364 5.87813 14.8654C5.26018 14.5799 5.03635 14.4008 5.03635 14.1914C5.03635 14.0179 5.24876 13.8278 5.49604 13.78C5.73748 13.7334 6.37785 13.8485 6.756 14.0065L7.07298 14.139V13.413V12.687L6.72895 12.608C6.51633 12.5592 6.06955 12.53 5.55926 12.5314C4.83646 12.5314 4.69493 12.5497 4.42291 12.6614C3.62837 12.9878 3.25133 13.5438 3.25736 14.3801C3.26301 15.163 3.66218 15.6514 4.65561 16.0907C5.24177 16.3499 5.47671 16.5473 5.47671 16.7806C5.47671 17.2763 4.6785 17.3373 3.83338 16.9062C3.60194 16.7881 3.394 16.6819 3.37129 16.6701C3.34859 16.6584 3.33002 16.9975 3.33002 17.4238C3.33002 18.1953 3.33081 18.1991 3.46582 18.2522C3.97422 18.4522 5.0979 18.5414 5.67747 18.4276ZM17.8615 17.7119V17.0569H16.8983H15.935V14.8072V12.5575H15.0818H14.2287V15.4622V18.3669H16.0451H17.8615V17.7119ZM11.9168 6.23415C13.6122 6.11247 14.8831 5.88275 16.0015 5.49585C17.1156 5.1104 17.7737 4.64401 17.921 4.1356C17.9777 3.93969 17.9736 3.86537 17.8943 3.65057C17.5389 2.68756 15.5533 1.94768 12.5192 1.6477C11.2213 1.51935 8.86097 1.56096 7.62349 1.73392C5.73525 1.99791 4.20285 2.48824 3.52148 3.04649C2.14315 4.17582 3.60075 5.41794 6.99043 6.00258C8.46018 6.25608 10.3644 6.34559 11.9168 6.23415H11.9168Z" fill="#00BCF2"/>
</svg>
