<svg width="24" height="27" viewBox="0 0 24 27" fill="none" xmlns="http://www.w3.org/2000/svg">
<path d="M3.4675 21.2467C3.18075 21.5238 2.78054 21.5948 2.4325 21.4305L0.615 20.5682C0.24437 20.3934 0.00217766 19.9848 0 19.5306V7.47002C0.00217766 7.01589 0.24437 6.60729 0.615 6.43246L2.4325 5.58431C2.78054 5.41994 3.18075 5.491 3.4675 5.76808L3.875 6.14974C3.70651 6.01277 3.48435 5.9941 3.29981 6.10143C3.11527 6.20875 2.99948 6.42396 3 6.65863V20.342C2.99948 20.5767 3.11527 20.7919 3.29981 20.8992C3.48435 21.0065 3.70651 20.9879 3.875 20.8509L3.4675 21.2467Z" fill="#52218A"/>
<path d="M0.615 20.5686C0.24437 20.3938 0.00217766 19.9852 0 19.531V19.4377C0.00252126 19.7048 0.148586 19.9432 0.368804 20.0397C0.589022 20.1362 0.839008 20.0713 1 19.8759L16.5 0.495849C16.9498 -0.0102743 17.6325 -0.141597 18.205 0.1679L23.15 2.85934C23.6698 3.14198 24.0002 3.7366 24 4.38883V4.45385C23.9997 4.04001 23.7886 3.66337 23.4579 3.48631C23.1271 3.30925 22.7357 3.36343 22.4525 3.6255L3.875 20.8513L3.4675 21.2471C3.18075 21.5242 2.78054 21.5952 2.4325 21.4309L0.615 20.5686Z" fill="#6C33AF"/>
<path d="M0.615 6.43242C0.24437 6.60726 0.00217766 7.01586 0 7.46999V7.56328C0.00252126 7.29622 0.148586 7.05781 0.368804 6.9613C0.589022 6.8648 0.839008 6.92966 1 7.12507L16.5 26.5052C16.9498 27.0113 17.6325 27.1426 18.205 26.8331L23.15 24.1417C23.6698 23.859 24.0002 23.2644 24 22.6122V22.5472C23.9997 22.961 23.7886 23.3376 23.4579 23.5147C23.1271 23.6918 22.7357 23.6376 22.4525 23.3755L3.875 6.14971L3.4675 5.75391C3.17822 5.48161 2.77824 5.41605 2.4325 5.58428L0.615 6.43242Z" fill="#854CC7"/>
<path d="M18.205 26.8334C17.6325 27.1429 16.9498 27.0116 16.5 26.5055C16.7519 26.7883 17.1294 26.8723 17.4573 26.7184C17.7852 26.5645 17.9992 26.2029 18 25.8015V1.20534C18.0012 0.802875 17.7879 0.439204 17.4596 0.283882C17.1313 0.128559 16.7526 0.212168 16.5 0.495727C16.9498 -0.0103964 17.6325 -0.141719 18.205 0.167778L23.15 2.85639C23.6698 3.13903 24.0002 3.73365 24 4.38588V22.6153C24.0002 23.2675 23.6698 23.8622 23.15 24.1448L18.205 26.8334Z" fill="#B179F1"/>
<path d="M17.2225 26.9575C17.553 27.0428 17.8993 26.9989 18.205 26.8331L23.15 24.1445C23.6698 23.8619 24.0002 23.2672 24 22.615V4.38556C24.0002 3.73333 23.6698 3.13871 23.15 2.85608L18.205 0.167461C17.8551 -0.0227362 17.4537 -0.0521246 17.085 0.0854733C16.8645 0.169001 16.6643 0.30934 16.5 0.495409L8.53 10.4639L3.875 6.1497L3.4675 5.7539C3.21875 5.51338 2.88166 5.42574 2.565 5.51925C2.51932 5.53066 2.47488 5.54773 2.4325 5.57014L0.615 6.43242C0.268169 6.59436 0.030697 6.96225 0 7.38516V7.46998V19.5306V19.6154C0.030697 20.0383 0.268169 20.4062 0.615 20.5681L2.4325 21.4163C2.47488 21.4387 2.51932 21.4558 2.565 21.4672C2.88166 21.5607 3.21875 21.473 3.4675 21.2325L3.875 20.8509L8.53 16.5366L16.5 26.5052C16.6987 26.7294 16.949 26.8861 17.2225 26.9575ZM18 7.75552L11.8025 13.5003L18 19.245V7.75552ZM3 9.61861L6.1025 13.5003L3 17.382V9.61861Z" fill="url(#paint0_linear_14614_319)" fill-opacity="0.25"/>
<defs>
<linearGradient id="paint0_linear_14614_319" x1="12" y1="0.00065907" x2="12" y2="26.9999" gradientUnits="userSpaceOnUse">
<stop stop-color="white"/>
<stop offset="1" stop-color="white" stop-opacity="0"/>
</linearGradient>
</defs>
</svg>
