<svg width="30" height="31" viewBox="0 0 30 31" fill="none" xmlns="http://www.w3.org/2000/svg">
<path d="M4.5 10.7838V15.4054H10.5V10.7838H4.5ZM1.5 6.16216H22.5V3.85135C22.5 2.57513 21.4926 1.54054 20.25 1.54054H3.75C2.50736 1.54054 1.5 2.57513 1.5 3.85135V6.16216ZM17.2497 7.7027H1.5V22.3378C1.5 23.6141 2.50736 24.6486 3.75 24.6486H16.5V23.1081H14.25C13.8358 23.1081 13.5 22.7632 13.5 22.3378C13.5 21.9124 13.8358 21.5676 14.25 21.5676H16.5V20.027H14.25C13.8358 20.027 13.5 19.6822 13.5 19.2568C13.5 18.8313 13.8358 18.4865 14.25 18.4865H16.5V16.9459H14.25C13.8358 16.9459 13.5 16.6011 13.5 16.1757V10.0135C13.5 9.5881 13.8358 9.24324 14.25 9.24324H16.575C16.6875 8.67411 16.9222 8.15055 17.2497 7.7027ZM24 6.16216H26.25C28.3211 6.16216 30 7.88647 30 10.0135V26.9595C30 29.0865 28.3211 30.8108 26.25 30.8108H20.25C18.1789 30.8108 16.5 29.0865 16.5 26.9595V26.1892H3.75C1.67893 26.1892 0 24.4649 0 22.3378V3.85135C0 1.72431 1.67893 0 3.75 0H20.25C22.3211 0 24 1.72431 24 3.85135V6.16216ZM16.5 15.4054V10.7838H15V15.4054H16.5ZM3.75 9.24324H11.25C11.6642 9.24324 12 9.5881 12 10.0135V16.1757C12 16.6011 11.6642 16.9459 11.25 16.9459H3.75C3.33579 16.9459 3 16.6011 3 16.1757V10.0135C3 9.5881 3.33579 9.24324 3.75 9.24324ZM18 10.0135V26.9595C18 28.2357 19.0074 29.2703 20.25 29.2703H26.25C27.4926 29.2703 28.5 28.2357 28.5 26.9595V10.0135C28.5 8.73729 27.4926 7.7027 26.25 7.7027H20.25C19.0074 7.7027 18 8.73729 18 10.0135ZM3.75 20.027C3.33579 20.027 3 19.6822 3 19.2568C3 18.8313 3.33579 18.4865 3.75 18.4865H11.25C11.6642 18.4865 12 18.8313 12 19.2568C12 19.6822 11.6642 20.027 11.25 20.027H3.75ZM3.75 23.1081C3.33579 23.1081 3 22.7632 3 22.3378C3 21.9124 3.33579 21.5676 3.75 21.5676H8.25C8.66421 21.5676 9 21.9124 9 22.3378C9 22.7632 8.66421 23.1081 8.25 23.1081H3.75ZM20.25 10.7838H26.25C26.6642 10.7838 27 11.1286 27 11.5541V14.6351C27 15.0605 26.6642 15.4054 26.25 15.4054H20.25C19.8358 15.4054 19.5 15.0605 19.5 14.6351V11.5541C19.5 11.1286 19.8358 10.7838 20.25 10.7838ZM21 12.3243V13.8649H25.5V12.3243H21ZM20.25 18.4865C19.8358 18.4865 19.5 18.1416 19.5 17.7162C19.5 17.2908 19.8358 16.9459 20.25 16.9459H26.25C26.6642 16.9459 27 17.2908 27 17.7162C27 18.1416 26.6642 18.4865 26.25 18.4865H20.25ZM20.25 21.5676C19.8358 21.5676 19.5 21.2227 19.5 20.7973C19.5 20.3719 19.8358 20.027 20.25 20.027H24.75C25.1642 20.027 25.5 20.3719 25.5 20.7973C25.5 21.2227 25.1642 21.5676 24.75 21.5676H20.25ZM3 3.08108H4.5V4.62162H3V3.08108ZM6 3.08108H7.5V4.62162H6V3.08108ZM9 3.08108H10.5V4.62162H9V3.08108ZM21.75 27.7297C21.3358 27.7297 21 27.3849 21 26.9595C21 26.534 21.3358 26.1892 21.75 26.1892H24.75C25.1642 26.1892 25.5 26.534 25.5 26.9595C25.5 27.3849 25.1642 27.7297 24.75 27.7297H21.75Z" fill="#5CE1E6"/>
</svg>
